<svg xmlns="http://www.w3.org/2000/svg" viewBox="0 0 1599.9999 1599.9999" id="svg2"><g id="layer1" transform="translate(0 547.637)"><path id="path5447" d="M2376.397-622.77l150.654-.326v149.449l-150.163 1.468z" fill="#fff" stroke-linecap="round" stroke-linejoin="bevel"/><g id="g4140" transform="matrix(1.0202 0 0 1.02041 -16.882 -5.866)"><path id="path4197" d="M984.652 252.38C872.835 237.361 786.51 126.296 800.167 14.05c.302-119.374-1.114-239.033.776-358.28 15.996-109.271 122.532-196.661 233.452-184.612 121.335 1.02 243.143-2.124 364.265 1.2 109.618 15.58 194.05 123.38 184.492 233.203-.724 118.305 1.45 236.849-1.09 355.004-11.15 114.449-122.64 206.33-237.245 193.33-120.01-.767-240.274 2.607-360.165-1.515z" fill="#f5ba00"/><path d="M203.437 252.38C91.62 237.361 5.295 126.296 18.952 14.05c.302-119.374-1.114-239.033.776-358.28C35.724-453.502 142.26-540.892 253.18-528.843c121.335 1.02 243.143-2.124 364.265 1.2 109.618 15.58 194.05 123.38 184.492 233.203-.724 118.305 1.45 236.849-1.09 355.004-11.15 114.449-122.64 206.33-237.245 193.33-120.01-.767-240.274 2.607-360.165-1.515z" id="path4211" fill="#64b1ea"/><path id="path4213" d="M984.652 1033.339c-111.817-15.02-198.142-126.085-184.485-238.33.302-119.375-1.114-239.033.776-358.281 15.996-109.27 122.532-196.661 233.452-184.611 121.335 1.019 243.142-2.125 364.265 1.199 109.618 15.58 194.05 123.38 184.492 233.203-.724 118.305 1.45 236.85-1.09 355.005-11.15 114.448-122.64 206.33-237.245 193.33-120.01-.767-240.274 2.606-360.165-1.515z" fill="#64b1ea"/><path d="M203.437 1033.339C91.62 1018.319 5.295 907.254 18.952 795.009c.302-119.375-1.114-239.033.776-358.281C35.724 327.458 142.26 240.067 253.18 252.117c121.335 1.019 243.143-2.125 364.265 1.199 109.618 15.58 194.05 123.38 184.492 233.203-.724 118.305 1.45 236.85-1.09 355.005-11.15 114.448-122.64 206.33-237.245 193.33-120.01-.767-240.274 2.606-360.165-1.515z" id="path4215" fill="#f5ba00"/><path id="path4219" d="M1261.77 228.234a466.871 466.871 0 0 1-466.871 466.87 466.871 466.871 0 0 1-466.871-466.87 466.871 466.871 0 0 1 466.87-466.871 466.871 466.871 0 0 1 466.872 466.87z" fill="#f5ba00"/><path id="path4279" d="M755.185 907.957C602.344 895.06 480.87 843.13 368.42 742.612c-101.423-90.66-171.108-202.67-202.66-325.753-22.856-89.159-27.442-193.459-12.682-288.416 16.109-103.63 58.206-199.57 124.422-283.562 31.192-39.565 74.086-82.644 114.25-114.74 99.369-79.414 207.632-122.718 332.316-132.924 19.893-1.628 84.66-1.638 105.557-.017 37.712 2.928 75.646 8.4 89.413 12.899 29.377 9.6 49.69 27.999 65.34 59.182 7.77 15.481 10.174 27.33 10.114 49.854-.055 21.174-2.228 33.679-8.551 49.242-9.36 23.032-30.461 43.792-57.038 56.114-22.553 10.456-41.356 12.217-77.184 7.227-36.458-5.077-64.687-6.52-92.005-4.702-57.685 3.839-104.54 16.65-154.807 42.33-64.79 33.097-127.655 90.95-168.714 155.263-11.647 18.244-28.331 51.867-35.8 72.149-32.57 88.438-34.377 188.591-5.047 279.687 12.802 39.762 32.053 78.306 56.272 112.672 30.405 43.142 77.498 89.438 120.665 118.623 83.478 56.438 185.028 81.076 287.082 69.652 79.091-8.853 148.076-37.52 210.187-87.343 16.977-13.618 55.91-52.73 69.758-70.076 39.3-49.232 68.124-108.59 79.433-163.584 10.745-52.246 11.705-91.337 3.72-151.383-3.664-27.55-2.978-51.347 1.897-65.812 9.927-29.454 31.184-55.578 54.77-67.31 9.252-4.6 25.195-9.357 37.305-11.128 14.667-2.144 40.168-.937 51.454 2.437 21.781 6.51 45.993 22.357 58.461 38.261 14.627 18.66 19.54 32.922 24.722 71.775 6.525 48.913 5.534 174.124-1.703 215.282-21.338 121.349-79.236 230.515-173.323 326.798-92.509 94.668-197.911 154.155-318.903 179.985-47.703 10.184-75.087 12.851-137.178 13.364-28.293.234-57.443-.082-64.778-.7z" fill="#fefefe"/></g></g></svg>