<svg xmlns="http://www.w3.org/2000/svg" viewBox="0 0 1599.9999 1599.9999"><path d="M2376.397-75.133l150.654-.326V73.99l-150.163 1.468z" fill="#fff"/><path d="M987.66 799.302c-114.076-15.325-202.144-128.657-188.212-243.194.308-121.81-1.136-243.912.792-365.593C816.56 79.014 925.247-10.16 1038.408 2.135c123.786 1.041 248.054-2.167 371.623 1.225C1521.863 19.258 1608 129.258 1598.25 241.323c-.739 120.72 1.479 241.683-1.112 362.25-11.376 116.784-125.118 210.54-242.038 197.275-122.434-.783-245.127 2.66-367.44-1.546z" fill="#f5ba00"/><path d="M190.664 799.302C76.59 783.977-11.48 670.645 2.453 556.108c.308-121.81-1.137-243.912.792-365.593C19.564 79.013 128.252-10.16 241.412 2.135c123.786 1.04 248.055-2.168 371.623 1.224 111.833 15.898 197.97 125.898 188.22 237.962-.74 120.72 1.478 241.684-1.113 362.25-11.375 116.785-125.117 210.541-242.037 197.276-122.434-.783-245.128 2.66-367.44-1.546zM987.66 1596.2c-114.076-15.326-202.144-128.658-188.212-243.194.308-121.811-1.136-243.912.792-365.593 16.32-111.5 125.007-200.675 238.168-188.38 123.786 1.04 248.053-2.168 371.623 1.224 111.832 15.898 197.97 125.898 188.219 237.963-.739 120.72 1.479 241.684-1.112 362.25-11.376 116.784-125.118 210.542-242.038 197.276-122.434-.782-245.127 2.66-367.44-1.546z" fill="#64b1ea"/><path d="M190.664 1596.2C76.59 1580.874-11.48 1467.542 2.453 1353.006c.308-121.811-1.137-243.912.792-365.593 16.319-111.5 125.007-200.675 238.167-188.38 123.786 1.04 248.055-2.168 371.623 1.224 111.833 15.898 197.97 125.898 188.22 237.963-.74 120.72 1.478 241.684-1.113 362.25-11.375 116.784-125.117 210.542-242.037 197.276-122.434-.782-245.128 2.66-367.44-1.546z" fill="#f5ba00"/><path d="M1270.376 774.663a476.302 476.4 0 0 1-476.302 476.4 476.302 476.4 0 0 1-476.302-476.4 476.302 476.4 0 0 1 476.3-476.4 476.302 476.4 0 0 1 476.304 476.4z" fill="#f5ba00"/><path d="M753.558 1468.26c-155.929-13.16-279.856-66.15-394.578-168.72-103.472-92.51-174.564-206.807-206.754-332.402-23.317-90.979-27.996-197.407-12.938-294.302 16.435-105.746 59.382-203.644 126.936-289.35 31.822-40.373 75.582-84.33 116.557-117.082 101.377-81.035 211.827-125.222 339.03-135.637 20.294-1.661 86.37-1.671 107.688-.017 38.474 2.988 77.174 8.571 91.22 13.162 29.97 9.796 50.693 28.57 66.66 60.39 7.926 15.797 10.379 27.888 10.318 50.872-.056 21.606-2.273 34.366-8.724 50.247-9.55 23.502-31.076 44.685-58.19 57.259-23.009 10.67-42.192 12.466-78.743 7.374-37.195-5.18-65.994-6.653-93.864-4.798-58.85 3.918-106.652 16.99-157.934 43.194-66.099 33.773-130.234 92.807-172.122 158.432-11.882 18.617-28.903 52.926-36.523 73.622-33.228 90.243-35.072 192.44-5.15 285.395 13.062 40.574 32.701 79.904 57.41 114.972 31.019 44.022 79.063 91.263 123.102 121.044 85.164 57.59 188.766 82.73 292.881 71.074 80.689-9.034 151.067-38.286 214.433-89.126 17.32-13.896 57.04-53.806 71.167-71.506 40.094-50.237 69.5-110.807 81.038-166.923 10.962-53.312 11.941-93.201 3.795-154.473-3.738-28.112-3.038-52.395 1.935-67.155 10.128-30.055 31.814-56.712 55.876-68.684 9.44-4.694 25.704-9.548 38.059-11.355 14.963-2.188 40.98-.956 52.493 2.487 22.221 6.643 46.922 22.813 59.642 39.042 14.923 19.04 19.935 33.594 25.222 73.24 6.656 49.91 5.645 177.677-1.738 219.676-21.769 123.825-80.836 235.22-176.824 333.467-94.378 96.6-201.909 157.302-325.345 183.659-48.666 10.392-76.604 13.113-139.949 13.637-28.864.238-58.603-.084-66.086-.715z" fill="#fefefe"/></svg>