<svg xmlns="http://www.w3.org/2000/svg" viewBox="0 0 613.3366 181.78763"><path d="M101.805 90.075C91.096 88.637 82.829 78 84.137 67.247c.029-11.433-.106-22.895.075-34.317 1.532-10.466 11.734-18.836 22.356-17.682 11.619.097 23.284-.204 34.882.115 10.498 1.492 18.583 11.817 17.669 22.336-.07 11.331.138 22.687-.106 34.003-1.066 10.963-11.743 19.764-22.718 18.518-11.493-.073-23.01.25-34.491-.145z" fill="#f5ba00"/><path d="M26.993 90.075C16.284 88.637 8.018 78 9.325 67.247c.029-11.433-.105-22.895.075-34.317 1.532-10.466 11.734-18.836 22.356-17.682 11.62.097 23.285-.204 34.883.115 10.498 1.492 18.583 11.817 17.669 22.336-.07 11.331.138 22.687-.106 34.003-1.067 10.963-11.744 19.764-22.718 18.518-11.493-.073-23.01.25-34.491-.145zm74.812 74.802c-10.709-1.438-18.976-12.076-17.668-22.827.029-11.434-.106-22.895.075-34.317 1.532-10.466 11.734-18.837 22.356-17.683 11.619.098 23.284-.204 34.882.115 10.498 1.493 18.583 11.818 17.669 22.337-.07 11.331.138 22.686-.106 34.003-1.066 10.962-11.743 19.763-22.718 18.518-11.493-.073-23.01.25-34.491-.145z" fill="#64b1ea"/><path d="M26.993 164.877C16.284 163.44 8.018 152.801 9.325 142.05c.029-11.434-.105-22.895.075-34.317 1.532-10.466 11.734-18.837 22.356-17.683 11.62.098 23.285-.204 34.883.115 10.498 1.493 18.583 11.818 17.669 22.337-.07 11.331.138 22.686-.106 34.003-1.067 10.962-11.744 19.763-22.718 18.518-11.493-.073-23.01.25-34.491-.145z" fill="#f5ba00"/><path d="M128.341 87.762a44.709 44.718 0 0 1-44.708 44.718 44.709 44.718 0 0 1-44.71-44.718 44.709 44.718 0 0 1 44.71-44.718 44.709 44.718 0 0 1 44.708 44.718z" fill="#f5ba00"/><path d="M79.83 152.869c-14.637-1.236-26.27-6.21-37.038-15.838-9.713-8.684-16.385-19.412-19.408-31.201-2.188-8.54-2.628-18.53-1.214-27.626 1.543-9.926 5.573-19.115 11.915-27.16 2.988-3.79 7.095-7.916 10.94-10.99 9.517-7.606 19.884-11.755 31.825-12.732 1.905-.156 8.107-.157 10.108-.002 3.61.28 7.244.805 8.562 1.236 2.814.92 4.76 2.682 6.258 5.668.744 1.483.974 2.618.968 4.775-.006 2.029-.213 3.226-.819 4.717-.896 2.206-2.917 4.195-5.462 5.375-2.16 1.002-3.96 1.17-7.391.692-3.492-.486-6.195-.624-8.81-.45-5.525.367-10.011 1.595-14.825 4.054-6.206 3.17-12.226 8.712-16.158 14.872-1.114 1.747-2.713 4.968-3.428 6.91-3.119 8.472-3.291 18.064-.483 26.79a40.33 40.338 0 0 0 5.389 10.792c2.911 4.132 7.422 8.566 11.555 11.362 7.994 5.406 17.719 7.766 27.492 6.671 7.574-.848 14.18-3.594 20.128-8.366 1.626-1.304 5.354-5.05 6.68-6.712 3.764-4.715 6.524-10.401 7.607-15.668 1.03-5.005 1.12-8.75.356-14.5-.35-2.639-.284-4.918.182-6.304.95-2.821 2.987-5.323 5.245-6.447.886-.44 2.413-.896 3.572-1.066 1.405-.206 3.847-.09 4.928.233 2.086.624 4.405 2.142 5.598 3.665 1.401 1.787 1.871 3.154 2.367 6.875.626 4.685.53 16.678-.162 20.62-2.044 11.624-7.589 22.08-16.598 31.302-8.86 9.068-18.953 14.765-30.539 17.24-4.568.975-7.192 1.23-13.137 1.28-2.71.022-5.501-.008-6.203-.067z" fill="#fefefe"/><path d="M346.232 133.538c4.504-4.447 8.211-8.116 8.238-8.153.086-.124-.521-.5-1.402-.866-2.344-.977-4.265-1.176-6.873-.713-1.593.283-2.758.689-3.876 1.35-3.655 2.164-5.83 5.718-6.118 9.995-.096 1.423.333 3.917.887 5.158.485 1.086.662 1.374.822 1.341.072-.014 3.817-3.665 8.321-8.112zm3.736 20.13c-8.116.69-15.491-3.806-18.58-11.325-.362-.878-.468-1.31-.823-3.331-.356-2.02-.401-2.469-.364-3.444.192-4.978 2-9.272 5.34-12.68.968-.986 3.11-2.607 4.268-3.227 4.132-2.215 9.207-2.691 13.788-1.295 2.477.755 4.86 2.078 6.712 3.724 1.286 1.143 1.569 1.543 1.727 2.44.155.881-.064 1.751-.603 2.389-.202.238-4.606 4.617-9.787 9.731-5.18 5.114-9.428 9.352-9.437 9.419-.041.284 2.37 1.25 3.745 1.5 2.578.467 5.718-.024 7.961-1.244 2.248-1.224 4.732-3.84 5.991-6.312.54-1.06 1.11-2.85 1.221-3.836a22.83 22.83 0 0 0 .088-1.612c.011-.558.047-1.148.079-1.312.086-.439.616-1.23 1.1-1.642.37-.316.532-.38 1.3-.515 1.009-.176 1.477-.077 2.233.474.986.718 1.28 1.564 1.247 3.594-.08 4.94-2.32 9.626-6.488 13.57-3.008 2.847-6.823 4.603-10.718 4.934zm-29.748-.015c-2.429-.688-2.033-3.441-2.06-5.401-.095-4.898.044-9.804-.234-14.695-.717-4.89-4.711-9.763-9.925-9.863-5.334-.506-9.918 4.139-10.817 9.15-.543 4.276-.258 8.607-.335 12.908-.035 1.91.067 3.85-.052 5.74-.628 2.312-4.065 2.955-5.356.877-.866-1.09-.394-2.518-.513-3.794v-40.89c.558-2.244 3.69-3.073 5.195-1.259 1.12 1.102.613 2.686.725 4.07.05 3.69-.132 7.402.141 11.075 2.234-1.69 4.706-3.2 7.512-3.698 4.853-.902 10.123.494 13.657 4.001 3.96 3.558 6.028 8.879 5.892 14.163.01 5.157.142 10.325-.123 15.475-.31 1.64-2.161 2.513-3.707 2.142zm71.217-5.999c2.51-.308 4.593-1.312 6.476-3.123 2.678-2.577 3.853-5.524 3.714-9.325-.087-2.39-.632-4.178-1.846-6.055-2.459-3.802-6.572-5.814-10.998-5.378-2.523.249-4.53 1.119-6.43 2.788-3.152 2.768-4.632 6.792-4.023 10.938.4 2.73 1.488 4.88 3.48 6.87 2.572 2.573 5.972 3.733 9.627 3.285zm-3.616 5.972c-2.48-.285-5.002-1.153-7.013-2.414-2.687-1.686-5.357-4.615-6.768-7.424-2.029-4.04-2.397-9.239-.974-13.73.88-2.776 2.446-5.216 4.813-7.496 3.263-3.144 6.852-4.678 11.316-4.838 4.45-.16 8.253 1.06 11.538 3.7.386.31.744.564.796.564.052 0 .122-.444.154-.986.07-1.15.31-1.796.894-2.403.652-.674 1.094-.853 2.118-.853.712 0 .974.045 1.31.226.563.303 1.147.926 1.406 1.501.212.467.213.613.215 16.244v15.773l-.246.524c-.332.71-1.058 1.36-1.753 1.565-1.203.358-2.179.112-3.032-.762-.681-.698-.821-1.07-.908-2.4-.035-.534-.102-.97-.15-.97-.046 0-.617.401-1.268.891-1.253.945-3.516 2.15-4.798 2.555-2.326.735-5.221 1.012-7.651.733zm33.317-.021c-.619-.222-1.14-.592-1.466-1.04-.658-.91-.617.6-.617-22.973 0-24.075-.065-22.14.774-23.074.654-.728 1.294-1.023 2.213-1.02 1.18.002 2.13.582 2.7 1.646l.234.44.027 21.847c.031 24.786.117 22.458-.866 23.441-.404.404-.69.588-1.104.711-.668.198-1.377.206-1.895.021zm21.275-.01c-.66-.203-1.466-.947-1.78-1.64l-.25-.554-.052-13.834-.052-13.834-2.672-.053c-2.976-.058-3.082-.08-3.883-.802-1.223-1.103-1.279-3.061-.12-4.263.798-.828.891-.85 3.95-.908l2.725-.053.052-4.926c.051-4.76.06-4.942.278-5.413.52-1.125 1.582-1.806 2.814-1.806 1.167 0 2.104.603 2.642 1.698l.292.596.052 4.925.052 4.926 2.725.053c3.06.058 3.153.08 3.951.908.574.596.813 1.206.813 2.078 0 .873-.239 1.483-.813 2.08-.798.827-.891.849-3.95.907l-2.726.053-.052 13.834-.052 13.834-.247.546c-.642 1.42-2.193 2.11-3.697 1.648zm46.953.037c-.815-.248-1.48-.845-1.876-1.684l-.272-.576-.059-9.013-.059-9.013-.27-.996c-.631-2.322-1.545-3.951-3.165-5.64-1.021-1.064-1.841-1.666-3.026-2.221-2.46-1.153-5.572-1.178-7.98-.065-3.527 1.63-6.076 5.378-6.55 9.632-.072.633-.113 4.018-.113 9.066 0 9.207.048 8.687-.887 9.622-.674.674-1.365.93-2.3.856-1.1-.088-1.946-.64-2.456-1.6l-.279-.523-.027-21.743c-.024-19.098-.01-21.809.13-22.285.211-.723.92-1.508 1.65-1.828.66-.289 1.709-.32 2.302-.07.513.216 1.305.957 1.588 1.484.225.421.227.472.256 7.472.02 4.976.062 7.048.142 7.048.062 0 .333-.182.6-.405 1.965-1.639 4.43-2.814 6.997-3.335 1.41-.287 4.635-.258 6.085.054 3.15.677 5.46 1.969 7.893 4.414 1.711 1.72 2.6 2.938 3.556 4.88.76 1.544 1.13 2.564 1.46 4.034.466 2.073.487 2.562.487 11.581v8.594l-.25.553c-.597 1.32-2.251 2.11-3.576 1.707z" fill="#64b1ea"/><path d="M294.909 82.318c10.538-1.582 18.86-11.907 18.115-22.557.351-11.605-10.194-22.314-21.862-21.829-11.366-.271-21.41 9.936-21.653 21.169-.49 7.73 3.3 15.47 9.73 19.793 4.511 3.157 10.259 4.342 15.67 3.424zm-7.928 11.191c-7.808-.938-15.036-5.023-20.19-10.92-9.988-10.693-11.21-28.151-3.298-40.361 5.168-7.868 13.455-14.023 22.964-15.172 9.06-1.357 18.635 1.17 25.62 7.165 1.986.639.36-4.522 2.506-5.598 2.344-2.858 7.227-2.352 8.943.936 1.24 1.717.55 3.883.725 5.843-.042 17.707.109 35.417-.12 53.123.252 4.204-5.362 6.703-8.576 4.217-2.813-1.175-1.79-5.849-3.174-6.757-6.047 5.266-14.079 8.014-22.08 7.72a32.305 32.305 0 0 1-3.32-.196zm50.396-.054c-2.407-.786-4.009-3.284-3.719-5.8-.183-18.923-.025-37.848-.023-56.772 1.02-2.984 4.448-5.049 7.507-3.768 2.673.88 3.735 3.828 3.564 6.42 1.394.76 3.633-2.487 5.484-3.026 4.524-2.707 9.907-3.962 15.156-3.725 3.82.623 6.106 5.73 3.465 8.784-1.885 2.83-5.546 2.098-8.407 2.797-8.779 1.97-14.952 10.68-15.499 19.421-.57 10.607.02 21.245-.441 31.85-.702 3.09-4.136 4.758-7.088 3.82zm45.666 0c-2.408-.786-4.009-3.284-3.72-5.8-.158-17.979-.087-35.961.034-53.94-.47-2.96 1.076-6.152 4.186-6.82 3.44-.978 7.098 2.118 6.767 5.667.01 3.255 3.136-1.174 4.656-1.503 4.706-3.082 10.448-4.527 16.046-4.275 3.82.623 6.106 5.73 3.465 8.784-1.886 2.83-5.547 2.098-8.408 2.797-8.777 1.97-14.951 10.68-15.498 19.421-.57 10.607.021 21.245-.44 31.85-.703 3.09-4.137 4.758-7.089 3.82zm67.008-.03c-11.598-1.815-20.578-11.734-23.662-22.714-2.076-7.15-1.232-14.673-1.47-22.011.078-5.98-.224-11.982.268-17.947.666-3.659 5.707-5.546 8.61-3.114 1.317 1.094 2.435 2.682 2.138 4.461.134 10.69-.033 21.388.399 32.07 1.07 7.522 5.794 15.156 13.243 17.686 5.997 1.972 12.928-.098 16.943-4.954 4.185-4.553 6.378-10.79 6.015-16.96.11-9.686.145-19.373.217-29.06 1.103-3.337 5.394-5.47 8.458-3.306 2.847 1.465 2.356 4.9 2.481 7.586.082 17.695.062 35.394-.118 53.088.49 3.513-3.39 6.243-6.644 5.286-2.883-.541-4.355-3.58-4.363-6.285-1.826.027-4.106 3.062-6.418 3.697-4.945 2.568-10.618 3.231-16.097 2.477zm46.774.03c-1.935-.721-3.246-2.194-3.639-4.09-.142-.686-.19-10.012-.155-29.74l.052-28.742.447-.907c.67-1.361 2.11-2.609 3.464-3.003 3.653-1.062 7.098 1.556 7.098 5.394 0 .618.085 1.176.189 1.24.103.064.67-.276 1.258-.755 5.286-4.306 11.394-6.37 18.04-6.097 7.42.304 13.195 2.91 18.35 8.28 1.028 1.072 2.384 2.673 3.013 3.559.63.885 1.24 1.642 1.356 1.68.116.04.88-.841 1.699-1.956 3.311-4.514 7.507-7.92 11.94-9.695 7.471-2.992 16.521-2.418 23.357 1.481 7.338 4.186 13.528 12.837 15.412 21.537.816 3.772.854 4.724.856 21.623 0 15.943-.01 16.289-.394 17.148-.483 1.068-1.569 2.227-2.616 2.79-.622.335-1.114.42-2.435.423-1.472.002-1.772-.062-2.694-.573-1.112-.616-1.978-1.566-2.522-2.77-.31-.684-.347-2.162-.451-17.505-.109-16.101-.13-16.822-.518-18.414-1.17-4.784-3.453-8.905-6.55-11.827-3.368-3.177-6.853-4.596-11.233-4.576-4.725.023-8.278 1.635-11.814 5.364-3.836 4.045-5.835 8.766-6.297 14.874-.115 1.516-.206 8.95-.209 17.015 0 13.976-.015 14.343-.401 15.199-.483 1.068-1.569 2.227-2.616 2.79-1.123.605-3.751.601-4.894-.006-1.29-.687-1.967-1.364-2.55-2.55l-.545-1.11-.115-16.759c-.126-18.38-.06-17.324-1.36-21.22-2.109-6.308-7.082-11.488-12.547-13.066-3.99-1.153-8.756-.52-12.407 1.65-1.55.92-4.065 3.22-5.326 4.87-2.77 3.623-4.368 7.957-4.778 12.957-.105 1.286-.195 8.915-.199 16.953-.01 14.267-.017 14.635-.403 15.49-.488 1.08-1.58 2.24-2.616 2.776-.997.517-3.206.656-4.247.268zm-274.052-.23c-9.88 1.246-20.308-1.84-27.482-8.855-7.257-6.551-11.277-16.372-10.702-26.129.177-9.361 4.85-18.343 12.144-24.155 7.343-6.293 17.676-8.595 27.049-6.395 4.36 1.251 5.01 8.043.951 10.071-3.213 1.555-6.8-.338-10.168.498-9.27.83-17.152 8.67-18.605 17.765-1.356 7.786 1.764 16.086 7.897 21.073 8.41 7.4 22.638 6.93 30.16-1.528 4.394-4.43 6.469-10.829 5.693-17.002-.72-3.159.772-7.018 4.258-7.616 3.305-.76 6.715 1.934 6.703 5.336 1.36 8.99-1.036 18.605-7.194 25.415-5.249 6.246-12.555 10.532-20.704 11.523z" fill="#f5bb04"/></svg>