<svg id="Layer_1" xmlns="http://www.w3.org/2000/svg" viewBox="0 0 1024.7 86.9"><g fill="#FFF" stroke="#000" stroke-miterlimit="10"><path d="M78 68.9c-7.8 10.6-20.4 17.5-34.6 17.5C19.7 86.4.5 67.2.5 43.5S19.7.5 43.4.5c14.1 0 26.7 6.8 34.5 17.4M218 69H77.7M77.7 17.9H218"/></g><g fill="#FFF" stroke="#000" stroke-miterlimit="10"><path d="M946.7 68.9c7.8 10.6 20.4 17.5 34.6 17.5 23.7 0 42.9-19.2 42.9-42.9S1005 .5 981.3.5c-14.1 0-26.7 6.8-34.5 17.4M806.7 69h140.4M947.1 17.9H806.7"/></g><g fill="#FFF" stroke="#000" stroke-miterlimit="10"><path d="M387.1 17.9C379.3 7.3 366.7.5 352.6.5c-14.1 0-26.7 6.8-34.5 17.4M318 68.9c7.8 10.6 20.4 17.5 34.6 17.5 14.2 0 26.7-6.9 34.6-17.5M178 69h140.3M387.1 69h140.3M318.3 17.9H178M527.4 17.9H387.1"/></g><g fill="#FFF" stroke="#000" stroke-miterlimit="10"><path d="M666.4 17.9C658.6 7.3 646 .5 631.9.5c-14.1 0-26.7 6.8-34.5 17.4M597.3 68.9c7.8 10.6 20.4 17.5 34.6 17.5 14.2 0 26.7-6.9 34.6-17.5M457.3 69h140.3M666.4 69h140.3M597.6 17.9H457.3M806.7 17.9H666.4"/></g><text transform="translate(31.323 49.073)" font-family="'MyriadPro-Regular'" font-size="20">0%</text></svg>