<svg xmlns="http://www.w3.org/2000/svg" viewBox="0 0 854.5 85"><path fill="#FFF" stroke="#000" stroke-miterlimit="10" d="M812 .5c-15.4 0-28.8 8.2-36.1 20.5H591.6C584.3 8.7 570.9.5 555.5.5c-15.4 0-28.8 8.2-36.1 20.5H335.1C327.8 8.7 314.3.5 299 .5c-15.4 0-28.8 8.2-36.1 20.5H78.6C71.3 8.7 57.9.5 42.5.5 19.3.5.5 19.3.5 42.5s18.8 42 42 42c16.1 0 30-9 37.1-22.3h182.3c7.1 13.3 21 22.3 37.1 22.3s30-9 37.1-22.3h182.3c7.1 13.3 21 22.3 37.1 22.3s30-9 37.1-22.3h182.3c7.1 13.3 21 22.3 37.1 22.3 23.2 0 42-18.8 42-42s-18.8-42-42-42z"/></svg>