<svg xmlns="http://www.w3.org/2000/svg" viewBox="0 0 1025.2 87.2"><path d="M78.4 69.2C70.6 79.8 58 86.7 43.8 86.7 20.1 86.7.9 67.5.9 43.8s19.3-43 43-43C58 .8 70.6 7.6 78.4 18.2m140.1 51.1H78.1m0-51.1h140.4m728.7 51c7.8 10.6 20.4 17.5 34.6 17.5 23.7 0 42.9-19.2 42.9-42.9S1005.5.9 981.8.9c-14.1 0-26.7 6.8-34.5 17.4m-140.1 51h140.3m0-51.1H807.2m-419.7 0C379.7 7.7 367.2.8 353 .8c-14.1 0-26.7 6.8-34.5 17.4m0 51c7.8 10.6 20.4 17.5 34.6 17.5 14.2 0 26.7-6.9 34.6-17.5m-209.3.1h140.4m68.7 0h140.4M318.8 18.2H178.4m349.5 0H387.5m279.3 0C659 7.7 646.5.8 632.3.8c-14.1 0-26.7 6.8-34.5 17.4m-.1 51c7.8 10.6 20.4 17.5 34.6 17.5 14.2 0 26.7-6.9 34.6-17.5m-209.2.1h140.4m68.7 0h140.4M598.1 18.2H457.7m349.5 0H666.8" fill="#FFF" stroke="#000" stroke-miterlimit="10"/><circle fill="#5DA7DB" cx="43.6" cy="43.6" r="43.6"/><circle fill="#217BBF" cx="43.6" cy="43.6" r="34.9"/><circle fill="#5DA7DB" cx="43.6" cy="43.6" r="24.3"/></svg>